# File created by Blade
# Date/Time:  Wed Jan 21 19:09:01 2015
#---------------------------------------------------------
:version 1.10
:name HOM
:units
  mass 1.0
  length 1.000000
  angle deg
:documentation
     Acclaim Skeleton File
:root
   axis xyz
   order TX TY TZ RX RY RZ
   position 0.000000 0.000000 0.000000
   orientation 0 0 0
:bonedata
   begin
      id 1
      name RightUpLeg_dum
      direction -1.000000 0.000000 0.000000
      length 3.693983
      axis 0.0 0.0 0.0 xyz
   end
   begin
      id 2
      name LeftUpLeg_dum
      direction 1.000000 0.000000 0.000000
      length 3.693983
      axis 0.0 0.0 0.0 xyz
   end
   begin
      id 3
      name Spine_dum
      direction 0.000000 1.000000 0.000000
      length 2.392956
      axis 0.0 0.0 0.0 xyz
   end
   begin
      id 4
      name RightUpLeg
      direction 0.000000 -1.000000 0.000000
      length 15.795667
      axis 0.0 0.0 0.0 xyz
      dof rx ry rz
   end
   begin
      id 5
      name RightLeg
      direction 0.000000 -1.000000 0.000000
      length 14.766989
      axis 0.0 0.0 0.0 xyz
      dof rx ry rz
   end
   begin
      id 6
      name RightFoot
      direction 0.000000 -0.258819 0.965926
      length 4.962790
      axis 15.0 0.0 0.0 xyz
      dof rx ry rz
   end
   begin
      id 7
      name RightToeBase
      direction 0.000000 0.000000 1.000000
      length 2.952750
      axis 0.0 0.0 0.0 xyz
      dof rx ry rz
   end
   begin
      id 8
      name LeftUpLeg
      direction 0.000000 -1.000000 0.000000
      length 15.795667
      axis 0.0 0.0 0.0 xyz
      dof rx ry rz
   end
   begin
      id 9
      name LeftLeg
      direction 0.000000 -1.000000 0.000000
      length 14.766989
      axis 0.0 0.0 0.0 xyz
      dof rx ry rz
   end
   begin
      id 10
      name LeftFoot
      direction 0.000000 -0.258819 0.965926
      length 4.962790
      axis 15.0 0.0 0.0 xyz
      dof rx ry rz
   end
   begin
      id 11
      name LeftToeBase
      direction 0.000000 0.000000 1.000000
      length 2.952750
      axis 0.0 0.0 0.0 xyz
      dof rx ry rz
   end
   begin
      id 12
      name Spine
      direction 0.000000 1.000000 0.000000
      length 0.000000
      axis 0.0 0.0 0.0 xyz
      dof rx ry rz
   end
   begin
      id 13
      name Spine_dum1
      direction 0.000000 1.000000 0.000000
      length 13.207411
      axis 0.0 0.0 0.0 xyz
   end
   begin
      id 14
      name Spine_dum2
      direction 0.000000 1.000000 0.000000
      length 13.207411
      axis 0.0 0.0 0.0 xyz
   end
   begin
      id 15
      name Spine_dum3
      direction 0.000000 1.000000 0.000000
      length 19.250100
      axis 0.0 0.0 0.0 xyz
   end
   begin
      id 16
      name RightShoulder
      direction -1.000000 0.000000 0.000000
      length 8.140465
      axis 0.0 0.0 90.0 xyz
      dof rx ry rz
   end
   begin
      id 17
      name RightArm
      direction -1.000000 0.000000 0.000000
      length 10.649840
      axis 0.0 0.0 90.0 xyz
      dof rx ry rz
   end
   begin
      id 18
      name RightForeArm
      direction -1.000000 0.000000 0.000000
      length 8.304624
      axis 0.0 0.0 90.0 xyz
      dof ry rz rx
   end
   begin
      id 19
      name RightHand
      direction -1.000000 0.000000 0.000000
      length 0.000000
      axis 0.0 0.0 90.0 xyz
      dof rx ry rz
   end
   begin
      id 20
      name RightHand_dum1
      direction -1.000000 0.000000 0.000000
      length 3.937000
      axis 0.0 0.0 90.0 xyz
   end
   begin
      id 21
      name RightHand_dum2
      direction 0.000000 0.000000 0.000000
      length 0.000000
      axis 0.0 0.0 90.0 xyz
   end
   begin
      id 22
      name RightHandThumb1
      direction 0.000000 0.000000 1.000000
      length 3.937000
      axis 0.0 0.0 90.0 xyz
      dof rx rz ry
   end
   begin
      id 23
      name LeftShoulder
      direction 1.000000 0.000000 0.000000
      length 8.140465
      axis 0.0 0.0 -90.0 xyz
      dof rx ry rz
   end
   begin
      id 24
      name LeftArm
      direction 1.000000 0.000000 0.000000
      length 10.649840
      axis 0.0 0.0 -90.0 xyz
      dof rx ry rz
   end
   begin
      id 25
      name LeftForeArm
      direction 1.000000 0.000000 0.000000
      length 8.304624
      axis 0.0 0.0 -90.0 xyz
      dof ry rz rx
   end
   begin
      id 26
      name LeftHand
      direction 1.000000 0.000000 0.000000
      length 0.000000
      axis 0.0 0.0 -90.0 xyz
      dof rx ry rz
   end
   begin
      id 27
      name LeftHand_dum1
      direction 1.000000 0.000000 0.000000
      length 3.937000
      axis 0.0 0.0 -90.0 xyz
   end
   begin
      id 28
      name LeftHand_dum2
      direction 0.000000 0.000000 0.000000
      length 0.000000
      axis 0.0 0.0 -90.0 xyz
   end
   begin
      id 29
      name LeftHandThumb1
      direction 0.000000 0.000000 1.000000
      length 3.937000
      axis 0.0 0.0 -90.0 xyz
      dof rx rz ry
   end
   begin
      id 30
      name Head
      direction 0.000000 1.000000 0.000000
      length 4.527550
      axis 0.0 0.0 0.0 xyz
      dof rx ry rz
   end
:hierarchy
   begin
      root RightUpLeg_dum LeftUpLeg_dum Spine_dum
      RightUpLeg_dum RightUpLeg
      LeftUpLeg_dum LeftUpLeg
      Spine_dum Spine
      RightUpLeg RightLeg
      RightLeg RightFoot
      RightFoot RightToeBase
      LeftUpLeg LeftLeg
      LeftLeg LeftFoot
      LeftFoot LeftToeBase
      Spine Spine_dum1 Spine_dum2 Spine_dum3
      Spine_dum1 RightShoulder
      Spine_dum2 LeftShoulder
      Spine_dum3 Head
      RightShoulder RightArm
      RightArm RightForeArm
      RightForeArm RightHand
      RightHand RightHand_dum1 RightHand_dum2
      RightHand_dum2 RightHandThumb1
      LeftShoulder LeftArm
      LeftArm LeftForeArm
      LeftForeArm LeftHand
      LeftHand LeftHand_dum1 LeftHand_dum2
      LeftHand_dum2 LeftHandThumb1
   end

# File created by Blade
# Date/Time:  Wed Jan 21 19:08:52 2015
# Frame Rate: 120.000 fps
#------------------------------------------------------
:FULLY-SPECIFIED
:DEGREES
1052
root -3.317568 32.675891 -9.398974 42.587104 16.637321 -0.274148
RightUpLeg -57.538165 -0.197659 3.992474
RightLeg 7.801996 -0.000000 -0.000000
RightFoot -5.557695 -6.837894 16.396344
RightToeBase 21.042278 -0.000000 -0.000000
LeftUpLeg -41.256619 -8.087995 1.254601
LeftLeg 3.412783 -0.000000 -0.000000
LeftFoot -8.208589 -5.608045 -3.039276
LeftToeBase 8.170426 -0.000000 -0.000000
Spine -41.321215 -7.194159 4.049172
RightShoulder -18.810224 5.743746 -33.437458
RightArm -4.526423 -18.165001 84.540584
RightForeArm 18.214467 -0.000000 -2.078966
RightHand 13.677890 -0.000000 0.533467
RightHandThumb1 -24.326973 -0.000000 -32.862282
LeftShoulder -7.733741 9.872651 24.709645
LeftArm 13.042997 24.258345 -86.854564
LeftForeArm 3.507580 -0.000000 2.920723
LeftHand -17.522253 -0.000000 -2.497832
LeftHandThumb1 -26.253704 0.000000 33.147579
Head 7.988732 -9.939077 11.954208
1053
root -3.337724 32.690132 -9.399295 42.572699 16.479150 -0.463189
RightUpLeg -57.288027 -0.158522 3.645298
RightLeg 8.311587 -0.000000 -0.000000
RightFoot -6.092905 -6.838425 16.286559
RightToeBase 20.715939 -0.000000 -0.000000
LeftUpLeg -41.316084 -7.699696 1.192320
LeftLeg 3.525729 -0.000000 -0.000000
LeftFoot -8.258900 -5.748023 -2.936732
LeftToeBase 8.203367 -0.000000 -0.000000
Spine -41.374427 -7.057132 4.194660
RightShoulder -18.788717 5.848518 -33.378505
RightArm -4.394388 -18.263349 84.292921
RightForeArm 18.043768 -0.000000 -1.932822
RightHand 13.803846 -0.000000 0.315278
RightHandThumb1 -24.326973 -0.000000 -32.862282
LeftShoulder -7.721884 9.883808 24.845549
LeftArm 12.983706 24.177898 -86.778314
LeftForeArm 3.327458 0.000000 2.665438
LeftHand -17.569055 -0.000000 -2.665909
LeftHandThumb1 -26.253704 0.000000 33.147579
Head 8.138503 -9.770613 11.926102
1054
root -3.352343 32.705102 -9.397032 42.543330 16.344003 -0.661965
RightUpLeg -56.968959 -0.166659 3.351602
RightLeg 8.768892 -0.000000 -0.000000
RightFoot -6.529368 -6.695873 16.121221
RightToeBase 20.430203 -0.000000 -0.000000
LeftUpLeg -41.343654 -7.433894 1.238826
LeftLeg 3.556291 -0.000000 -0.000000
LeftFoot -8.271204 -5.714496 -2.878015
LeftToeBase 8.068543 -0.000000 -0.000000
Spine -41.422682 -6.899307 4.358269
RightShoulder -18.770008 5.886495 -33.318808
RightArm -4.235287 -18.409163 84.030511
RightForeArm 18.061500 -0.000000 -1.743415
RightHand 13.812571 0.000000 0.131201
RightHandThumb1 -24.326973 -0.000000 -32.862282
LeftShoulder -7.703222 9.915569 24.966611
LeftArm 12.954171 24.027183 -86.699351
LeftForeArm 3.279814 -0.000000 2.457058
LeftHand -17.557206 -0.000000 -2.904443
LeftHandThumb1 -26.253704 0.000000 33.147579
Head 8.284428 -9.593654 11.916880
1055
root -3.368823 32.718966 -9.395175 42.524866 16.230270 -0.828216
RightUpLeg -56.632628 -0.174258 3.107141
RightLeg 9.189380 -0.000000 -0.000000
RightFoot -6.994239 -6.788487 15.889261
RightToeBase 20.112357 -0.000000 -0.000000
LeftUpLeg -41.370801 -7.248088 1.315724
LeftLeg 3.576875 -0.000000 -0.000000
LeftFoot -8.247761 -5.641118 -2.819863
LeftToeBase 8.116212 -0.000000 -0.000000
Spine -41.466059 -6.759378 4.492782
RightShoulder -18.775194 5.938259 -33.273879
RightArm -4.103559 -18.510356 83.785663
RightForeArm 17.999205 -0.000000 -1.581042
RightHand 13.962739 -0.000000 -0.163502
RightHandThumb1 -24.326973 -0.000000 -32.862282
LeftShoulder -7.686184 9.865663 25.096475
LeftArm 12.871700 23.848149 -86.624451
LeftForeArm 3.141356 -0.000000 2.252625
LeftHand -17.540639 -0.000000 -3.081729
LeftHandThumb1 -26.253704 0.000000 33.147579
Head 8.407844 -9.433987 11.937942
1056
root -3.394153 32.732425 -9.398167 42.559435 16.152836 -1.000745
RightUpLeg -56.327307 -0.125309 2.804798
RightLeg 9.564364 -0.000000 -0.000000
RightFoot -7.376899 -6.851344 15.593728
RightToeBase 19.670985 -0.000000 -0.000000
LeftUpLeg -41.473377 -7.046818 1.422146
LeftLeg 3.603269 -0.000000 -0.000000
LeftFoot -8.271475 -5.551596 -2.899387
LeftToeBase 7.971993 -0.000000 -0.000000
Spine -41.545511 -6.649547 4.644255
RightShoulder -18.769915 6.017693 -33.224129
RightArm -4.011903 -18.571372 83.555682
RightForeArm 17.827107 -0.000000 -1.382153
RightHand 14.022981 0.000000 -0.476762
RightHandThumb1 -24.326973 -0.000000 -32.862282
LeftShoulder -7.672373 9.861685 25.241886
LeftArm 12.846307 23.741113 -86.505279
LeftForeArm 2.986683 0.000000 2.131685
LeftHand -17.592259 -0.000000 -3.177480
LeftHandThumb1 -26.253704 0.000000 33.147579
Head 8.467438 -9.291466 11.934465
1057
root -3.413122 32.747037 -9.396998 42.558431 16.061360 -1.158444
RightUpLeg -55.969748 -0.069148 2.428039
RightLeg 9.985717 -0.000000 -0.000000
RightFoot -7.718899 -6.799376 15.318793
RightToeBase 19.035454 -0.000000 -0.000000
LeftUpLeg -41.504525 -6.837152 1.476964
LeftLeg 3.593748 -0.000000 -0.000000
LeftFoot -8.255357 -5.491935 -2.841371
LeftToeBase 7.314245 -0.000000 -0.000000
Spine -41.602048 -6.534311 4.784173
RightShoulder -18.752858 6.066186 -33.161987
RightArm -3.882718 -18.634877 83.302925
RightForeArm 17.713835 -0.000000 -1.240180
RightHand 14.123725 -0.000000 -0.667246
RightHandThumb1 -24.326973 -0.000000 -32.862282
LeftShoulder -7.666847 9.889509 25.363902
LeftArm 12.824241 23.502653 -86.395682
LeftForeArm 3.023741 -0.000000 2.052130
LeftHand -17.631075 -0.000000 -3.260503
LeftHandThumb1 -26.253704 0.000000 33.147579
Head 8.556240 -9.146396 11.972691
1058
root -3.428426 32.758699 -9.392096 42.554803 15.991535 -1.271145
RightUpLeg -55.569538 -0.057291 2.089997
RightLeg 10.369276 -0.000000 -0.000000
RightFoot -8.244704 -6.789732 14.980028
RightToeBase 18.399160 -0.000000 -0.000000
LeftUpLeg -41.501431 -6.654598 1.487762
LeftLeg 3.569255 -0.000000 -0.000000
LeftFoot -8.238338 -5.488812 -2.816481
LeftToeBase 7.311476 -0.000000 -0.000000
Spine -41.650943 -6.427020 4.890834
RightShoulder -18.766170 6.087381 -33.142035
RightArm -3.788267 -18.734018 83.077474
RightForeArm 17.608795 -0.000000 -1.031384
RightHand 14.134738 -0.000000 -0.866433
RightHandThumb1 -24.326973 -0.000000 -32.862282
LeftShoulder -7.648667 9.869656 25.486412
LeftArm 12.776254 23.316461 -86.277200
LeftForeArm 2.893610 -0.000000 2.031929
LeftHand -17.756292 -0.000000 -3.266164
LeftHandThumb1 -26.253704 0.000000 33.147579
Head 8.617187 -9.013711 11.978733
1059
root -3.448498 32.770524 -9.387517 42.530191 15.942699 -1.412179
RightUpLeg -55.129832 -0.101665 1.954155
RightLeg 10.696348 -0.000000 -0.000000
RightFoot -8.818913 -6.856428 14.728967
RightToeBase 17.608569 -0.000000 -0.000000
LeftUpLeg -41.495311 -6.444640 1.526410
LeftLeg 3.569430 -0.000000 -0.000000
LeftFoot -8.208331 -5.595430 -2.802675
LeftToeBase 7.987430 -0.000000 -0.000000
Spine -41.675918 -6.340069 5.038787
RightShoulder -18.743647 6.152060 -33.111099
RightArm -3.733676 -18.856054 82.890080
RightForeArm 17.711737 -0.000000 -0.872888
RightHand 14.268230 0.000000 -1.341924
RightHandThumb1 -24.326973 -0.000000 -32.862282
LeftShoulder -7.687051 9.917423 25.586153
LeftArm 12.807590 23.113136 -86.107779
LeftForeArm 2.862248 -0.000000 2.051983
LeftHand -17.793105 -0.000000 -3.271874
LeftHandThumb1 -26.253704 0.000000 33.147579
Head 8.655394 -8.851449 11.981307
1060
root -3.467718 32.781823 -9.382679 42.539275 15.903536 -1.523479
RightUpLeg -54.703702 -0.099265 1.711959
RightLeg 11.048882 -0.000000 -0.000000
RightFoot -9.412190 -6.992649 14.468824
RightToeBase 16.871850 -0.000000 -0.000000
LeftUpLeg -41.513141 -6.239274 1.532355
LeftLeg 3.565000 -0.000000 -0.000000
LeftFoot -8.208109 -5.623991 -2.952719
LeftToeBase 8.230645 -0.000000 -0.000000
Spine -41.734265 -6.250249 5.157972
RightShoulder -18.725912 6.161834 -33.080824
RightArm -3.653263 -18.851446 82.673880
RightForeArm 17.516642 -0.000000 -0.679619
RightHand 14.413493 -0.000000 -1.609250
RightHandThumb1 -24.326973 -0.000000 -32.862282
LeftShoulder -7.700125 9.922520 25.693703
LeftArm 12.822620 22.931330 -85.950908
LeftForeArm 2.799704 -0.000000 2.070368
LeftHand -17.844169 -0.000000 -3.162334
LeftHandThumb1 -26.253704 0.000000 33.147579
Head 8.697759 -8.750026 11.991626
1061
root -3.487365 32.792909 -9.379652 42.569415 15.883460 -1.624723
RightUpLeg -54.327667 -0.162001 1.578815
RightLeg 11.461668 -0.000000 -0.000000
RightFoot -10.063212 -7.135923 14.280922
RightToeBase 16.079142 -0.000000 -0.000000
LeftUpLeg -41.550411 -6.026003 1.528939
LeftLeg 3.536329 -0.000000 -0.000000
LeftFoot -8.287789 -5.633431 -2.911397
LeftToeBase 8.600742 -0.000000 -0.000000
Spine -41.800733 -6.169774 5.270911
RightShoulder -18.726104 6.143542 -33.038077
RightArm -3.563088 -18.881136 82.463270
RightForeArm 17.431206 -0.000000 -0.481087
RightHand 14.594543 -0.000000 -2.050620
RightHandThumb1 -24.326973 -0.000000 -32.862282
LeftShoulder -7.691962 9.922346 25.808957
LeftArm 12.801692 22.713577 -85.793228
LeftForeArm 2.910691 -0.000000 2.212777
LeftHand -17.871123 0.000000 -3.124267
LeftHandThumb1 -26.253704 0.000000 33.147579
Head 8.710224 -8.635269 12.027737
1062
root -3.507068 32.803437 -9.376998 42.615030 15.862235 -1.719344
RightUpLeg -53.949812 -0.231621 1.437655
RightLeg 11.842348 -0.000000 -0.000000
RightFoot -10.584662 -7.201571 14.081712
RightToeBase 15.815956 -0.000000 -0.000000
LeftUpLeg -41.579274 -5.852817 1.538163
LeftLeg 3.438148 -0.000000 -0.000000
LeftFoot -8.198846 -5.582902 -2.707754
LeftToeBase 7.701861 -0.000000 -0.000000
Spine -41.881481 -6.071526 5.372455
RightShoulder -18.725558 6.186881 -33.038992
RightArm -3.552711 -18.840980 82.300043
RightForeArm 17.420020 -0.000000 -0.321516
RightHand 14.624756 -0.000000 -2.257543
RightHandThumb1 -24.326973 -0.000000 -32.862282
LeftShoulder -7.693152 9.956381 25.903211
LeftArm 12.873228 22.527128 -85.599569
LeftForeArm 2.857278 -0.000000 2.323976
LeftHand -17.874038 -0.000000 -2.872720
LeftHandThumb1 -26.253704 0.000000 33.147579
Head 8.712492 -8.561684 12.023780
1063
root -3.533057 32.814872 -9.373414 42.667054 15.883183 -1.850046
RightUpLeg -53.464244 -0.214877 1.289598
RightLeg 11.979002 -0.000000 -0.000000
RightFoot -11.121643 -7.474546 13.882997
RightToeBase 15.601433 -0.000000 -0.000000
LeftUpLeg -41.646343 -5.839561 1.764377
LeftLeg 3.373692 -0.000000 -0.000000
LeftFoot -8.161253 -5.460777 -2.726484
LeftToeBase 7.721911 -0.000000 -0.000000
Spine -41.968871 -5.976705 5.498749
RightShoulder -18.755203 6.116812 -32.977207
RightArm -3.429211 -18.888694 82.094874
RightForeArm 17.355711 -0.000000 -0.142650
RightHand 14.658533 0.000000 -2.512914
RightHandThumb1 -24.326973 -0.000000 -32.862282
LeftShoulder -7.693539 9.940459 26.023048
LeftArm 12.876622 22.285337 -85.425236
LeftForeArm 2.980483 -0.000000 2.542795
LeftHand -17.979817 0.000000 -2.724362
LeftHandThumb1 -26.253704 0.000000 33.147579
Head 8.667187 -8.510518 12.092560
